<svg width="29" height="40" viewBox="0 0 29 40" fill="none" xmlns="http://www.w3.org/2000/svg">
  <path d="M16.1656 36.5751L14.9754 35.8947L19.8811 10.9813L28.0957 20.4158L16.1656 36.5751Z" fill="white" fill-opacity="0.15" />
  <path d="M28.5856 0C28.5801 13.516 28.5702 20.3234 28.5559 20.4223C28.5385 20.5658 28.4845 20.7025 28.3992 20.8191L14.291 40L0.170898 20.8191C0.0855139 20.7025 0.0315487 20.5658 0.0141844 20.4223C0.00335659 20.3024 -0.00127207 20.2303 0.000298392 20.2061V0L8.92701 10.0931L19.6986 10.0753L28.5856 0ZM15.9672 36.3774L27.6989 20.4164L19.8811 11.3786L15.3721 35.6969L15.9672 36.3774ZM12.6167 36.3774L13.2079 35.7049L8.69889 11.3845L0.881068 20.4223L12.6167 36.3774Z" fill="white" />
  <path d="M23.0509 20.8033L19.0915 25.356L18.4567 22.5629L23.0509 20.8033Z" fill="white" />
</svg>